<svg width="158" height="22" viewBox="0 0 158 22" fill="none" xmlns="http://www.w3.org/2000/svg">
<path d="M11 22C17.0751 22 22 17.0751 22 11C22 4.92488 17.0751 7.62939e-06 11 7.62939e-06C4.92487 7.62939e-06 0 4.92488 0 11C0 17.0751 4.92487 22 11 22Z" fill="#1877F2"/>
<path opacity="0.49" d="M21.0184 15.5483C21.0453 15.4394 21.0905 15.3357 21.1519 15.2418C21.7135 13.8982 22.0018 12.4562 22 11C22 10.9213 21.9987 10.8429 21.9971 10.7646L14.8725 3.64006C14.1924 3.5679 13.5088 3.53296 12.8248 3.53538C10.7984 3.53538 9.4116 4.77178 9.4116 7.04346V9.00238H7.12756V11.6644L9.41165 13.948V18.4646L12.7996 21.8526C14.5815 21.5563 16.2631 20.8263 17.6964 19.7269C19.1296 18.6275 20.2704 17.1925 21.0184 15.5483Z" fill="url(#paint0_linear_1_49)"/>
<path d="M12.1592 18.4646V11.6644H14.4516L14.7951 9.00238H12.1592V7.3071C12.1592 6.5382 12.3727 6.0143 13.4752 6.0143H14.8725V3.64001C14.1923 3.5679 13.5087 3.53297 12.8248 3.53538C10.7984 3.53538 9.41156 4.77178 9.41156 7.04346V9.00238H7.12756V11.6644H9.41165V18.4646H12.1592Z" fill="white"/>
<g clip-path="url(#clip0_1_49)">
<path d="M45 21.9998C51.0751 21.9998 55.9999 17.075 55.9999 10.9999C55.9999 4.92482 51.0751 0 45 0C38.9249 0 34.0001 4.92482 34.0001 10.9999C34.0001 17.075 38.9249 21.9998 45 21.9998Z" fill="#CC3731"/>
<path d="M52.7779 3.22077C57.0736 7.51652 57.0738 14.4816 52.7777 18.7777C48.4818 23.0734 41.5166 23.0734 37.2208 18.7777L52.7779 3.22077Z" fill="#BC2B2A"/>
<path d="M55.9076 12.4014L49.6153 6.10908L48.3128 7.41161L46.923 6.0219L45.1585 6.34359L44.5494 6.60099L42.5822 6.22791L40.8162 7.32792L40.4776 10.6732L43.2276 13.4233L41.5401 13.7835L39.9188 14.5651L39.4933 17.1577L44.312 21.9766C44.5397 21.9904 44.7683 22 44.9993 22C50.5991 21.9998 55.2184 17.8144 55.9076 12.4014Z" fill="#A52728"/>
<path d="M44.9387 6.5911C45.0405 6.654 45.1539 6.74568 45.2803 6.86642C45.4017 6.99235 45.5204 7.14725 45.6369 7.33019C45.7484 7.50352 45.8473 7.70744 45.9336 7.94349C46.0043 8.1792 46.0397 8.45466 46.0397 8.7692C46.0305 9.34587 45.903 9.807 45.6576 10.1533C45.5381 10.321 45.4106 10.4755 45.2762 10.6174C45.1273 10.7583 44.9689 10.903 44.8013 11.0496C44.7047 11.1491 44.6165 11.2617 44.5346 11.3878C44.4388 11.5187 44.3907 11.6706 44.3907 11.8434C44.3907 12.0124 44.4398 12.1508 44.5386 12.2606C44.6218 12.3655 44.7037 12.4574 44.7825 12.536L45.3294 12.9842C45.669 13.2628 45.9671 13.5678 46.2232 13.9035C46.4645 14.2448 46.5899 14.6902 46.6007 15.2403C46.6007 16.0214 46.2554 16.713 45.5655 17.3166C44.8509 17.9408 43.8183 18.2627 42.4696 18.2833C41.3404 18.2731 40.4975 18.0323 39.9405 17.5622C39.3791 17.1222 39.0975 16.5966 39.0975 15.9844C39.0975 15.6865 39.1886 15.3533 39.3723 14.9872C39.5491 14.6216 39.8703 14.2994 40.3356 14.022C40.8572 13.7243 41.4057 13.5252 41.9806 13.4253C42.5497 13.3422 43.0219 13.2945 43.3983 13.2845C43.2819 13.1313 43.1782 12.968 43.0874 12.7943C42.9813 12.6255 42.9286 12.4221 42.9286 12.1857C42.9286 12.0434 42.9486 11.9241 42.9891 11.8298C43.0243 11.7291 43.0575 11.6379 43.0874 11.553C42.9043 11.5736 42.7315 11.5846 42.5699 11.5846C41.7116 11.5736 41.0575 11.3037 40.6074 10.7747C40.1358 10.2812 39.9003 9.70733 39.9003 9.0525C39.9003 8.26063 40.2338 7.54293 40.9016 6.89803C41.3598 6.52078 41.8359 6.27517 42.3297 6.1588C42.8188 6.05927 43.2772 6.00961 43.7045 6.00961H46.9284L45.9329 6.59096H44.9385V6.5911H44.9387ZM45.561 15.87C45.561 15.4607 45.4276 15.1048 45.1614 14.8008C44.8786 14.5126 44.4374 14.159 43.8368 13.739C43.7336 13.7281 43.6131 13.7232 43.4748 13.7232C43.3926 13.7131 43.1821 13.7232 42.8436 13.7546C42.5099 13.8019 42.1683 13.8779 41.8193 13.9828C41.737 14.0141 41.622 14.0615 41.4732 14.1242C41.3245 14.1925 41.173 14.2898 41.0188 14.4153C40.8699 14.5463 40.744 14.7087 40.6419 14.9033C40.5232 15.1079 40.4651 15.3542 40.4651 15.6422C40.4651 16.2088 40.7209 16.6755 41.234 17.0426C41.722 17.4093 42.3889 17.5979 43.2362 17.6089C43.9957 17.5979 44.5758 17.4305 44.9757 17.1055C45.366 16.7851 45.561 16.3739 45.561 15.87ZM43.314 11.1449C43.7383 11.1293 44.0919 10.9764 44.3745 10.6874C44.5113 10.4826 44.5988 10.2725 44.6377 10.0571C44.6611 9.84172 44.6731 9.66091 44.6731 9.51325C44.6731 8.87824 44.5104 8.23663 44.1854 7.59135C44.0327 7.28182 43.8319 7.02912 43.583 6.83494C43.3289 6.65187 43.0367 6.55425 42.7067 6.54366C42.2697 6.55425 41.9071 6.73022 41.6172 7.07187C41.373 7.42879 41.2561 7.82814 41.267 8.26949C41.267 8.85224 41.4373 9.45843 41.7784 10.0893C41.9437 10.3833 42.1565 10.6328 42.4184 10.8377C42.6795 11.0428 42.9777 11.1449 43.314 11.1449Z" fill="white"/>
<path d="M51.2955 7.77062H49.6043V6.07854H48.7846V7.77062H47.0934V8.58992H48.7846V10.2814H49.6043V8.58992H51.2955V7.77062Z" fill="white"/>
</g>
<g clip-path="url(#clip1_1_49)">
<path d="M79 21.7422C84.9327 21.7422 89.7422 16.9327 89.7422 11C89.7422 5.06725 84.9327 0.257812 79 0.257812C73.0673 0.257812 68.2578 5.06725 68.2578 11C68.2578 16.9327 73.0673 21.7422 79 21.7422Z" fill="url(#paint1_linear_1_49)"/>
<path opacity="0.49" d="M89.7374 10.6884L84.554 5.50499C83.8025 4.76163 82.7906 4.48465 81.7595 4.43365H76.2404C75.2092 4.48465 74.1975 4.7615 73.446 5.50499C72.7017 6.24139 72.4147 7.24849 72.3632 8.26977V13.7302C72.4147 14.7515 72.7017 15.7586 73.446 16.495L78.6884 21.7374C78.7919 21.7403 78.8957 21.7422 79 21.7422C84.9327 21.7422 89.7422 16.9327 89.7422 11C89.7422 10.8957 89.7403 10.7919 89.7374 10.6884ZM76.3101 16.3222C75.6106 16.303 74.8175 16.1288 74.3191 15.5965C73.8011 15.043 73.6083 14.3744 73.5855 13.6265C73.5855 13.6265 73.5506 9.68628 73.5855 8.37345C73.6054 7.62554 73.8011 6.95694 74.3191 6.40355C74.8175 5.87099 75.6106 5.69701 76.3101 5.67781C77.6545 5.6409 80.3452 5.6409 81.6895 5.67781C82.3891 5.69701 83.1821 5.87117 83.6806 6.40355C84.1985 6.95694 84.3942 7.62554 84.4141 8.37345V8.43967L83.006 7.03137C82.941 6.96643 82.8639 6.91491 82.7791 6.87977C82.6942 6.84462 82.6033 6.82653 82.5115 6.82653C82.4196 6.82653 82.3287 6.84461 82.2438 6.87976C82.159 6.9149 82.0819 6.96641 82.017 7.03134C81.952 7.09628 81.9005 7.17337 81.8654 7.25822C81.8302 7.34306 81.8121 7.434 81.8121 7.52584C81.8121 7.71131 81.8858 7.88918 82.0169 8.02033L84.4143 10.4176V11.4694L81.4724 8.52754C80.816 7.87538 79.9277 7.51005 79.0024 7.51158C78.0771 7.51311 77.19 7.88138 76.5357 8.5357C75.8814 9.19002 75.5131 10.077 75.5116 11.0024C75.5101 11.9277 75.8754 12.8159 76.5276 13.4724L79.4044 16.3494C78.2674 16.3521 77.0725 16.3431 76.3101 16.3222Z" fill="url(#paint2_linear_1_49)"/>
<path d="M85.6369 8.26977C85.5853 7.24849 85.2983 6.24139 84.554 5.50499C83.8026 4.76163 82.7907 4.48465 81.7596 4.43365H76.2404C75.2092 4.48465 74.1975 4.7615 73.446 5.50499C72.7017 6.24139 72.4147 7.24849 72.3632 8.26977V13.7302C72.4147 14.7515 72.7017 15.7586 73.446 16.495C74.1975 17.2383 75.2093 17.5153 76.2404 17.5664H81.7595C82.7908 17.5153 83.8025 17.2385 84.554 16.495C85.2983 15.7586 85.5852 14.7515 85.6368 13.7302L85.6369 8.26977ZM73.5859 8.37349C73.6058 7.62554 73.8015 6.95694 74.3194 6.40355C74.8179 5.871 75.611 5.69701 76.3105 5.67781C77.6548 5.64094 80.3456 5.64094 81.6899 5.67781C82.3894 5.69701 83.1825 5.87117 83.681 6.40355C84.1989 6.95694 84.3946 7.62554 84.4145 8.37349V13.6265C84.3946 14.3745 84.1989 15.0431 83.681 15.5965C83.1825 16.129 82.3894 16.303 81.6899 16.3222C80.3456 16.3591 77.6548 16.3591 76.3105 16.3222C75.611 16.303 74.8179 16.1288 74.3194 15.5965C73.8015 15.0431 73.6087 14.3744 73.5859 13.6265C73.5859 13.6265 73.5508 9.68628 73.5859 8.37349Z" fill="white"/>
<path d="M82.5114 8.22516C82.8977 8.22516 83.2108 7.91207 83.2108 7.52585C83.2108 7.13963 82.8977 6.82653 82.5114 6.82653C82.1252 6.82653 81.8121 7.13963 81.8121 7.52585C81.8121 7.91207 82.1252 8.22516 82.5114 8.22516Z" fill="white"/>
<path d="M79 7.50338C78.3084 7.50338 77.6324 7.70845 77.0574 8.09266C76.4824 8.47686 76.0342 9.02295 75.7696 9.66187C75.5049 10.3008 75.4357 11.0038 75.5706 11.6821C75.7055 12.3604 76.0385 12.9834 76.5275 13.4724C77.0165 13.9614 77.6396 14.2944 78.3178 14.4294C78.9961 14.5643 79.6991 14.495 80.3381 14.2304C80.977 13.9658 81.5231 13.5176 81.9073 12.9426C82.2915 12.3676 82.4966 11.6916 82.4966 11C82.4966 10.5408 82.4062 10.0861 82.2304 9.66191C82.0547 9.23768 81.7972 8.85221 81.4725 8.52752C81.1478 8.20283 80.7623 7.94527 80.3381 7.76955C79.9139 7.59382 79.4592 7.50338 79 7.50338ZM79 13.2559C78.5538 13.2559 78.1177 13.1236 77.7467 12.8757C77.3757 12.6278 77.0866 12.2755 76.9159 11.8633C76.7451 11.4511 76.7004 10.9975 76.7875 10.5599C76.8745 10.1223 77.0894 9.72036 77.4049 9.40487C77.7204 9.08938 78.1223 8.87453 78.5599 8.78749C78.9975 8.70045 79.4511 8.74512 79.8633 8.91586C80.2755 9.0866 80.6278 9.37574 80.8757 9.74672C81.1236 10.1177 81.2559 10.5538 81.2559 11C81.2559 11.5983 81.0182 12.1721 80.5951 12.5951C80.1721 13.0182 79.5983 13.2559 79 13.2559Z" fill="white"/>
</g>
<g clip-path="url(#clip2_1_49)">
<path d="M113 22C119.075 22 124 17.0751 124 11C124 4.92487 119.075 0 113 0C106.925 0 102 4.92487 102 11C102 17.0751 106.925 22 113 22Z" fill="#03A9F4"/>
<path opacity="0.49" d="M124 11C124 10.3194 123.937 9.6402 123.812 8.97112L120.144 5.3028C120.144 5.3028 118.886 5.89473 118.182 6.0427C117.629 5.45077 116.824 5.1055 115.918 5.1055C113.921 5.1055 112.506 6.88015 112.899 8.80511C110.334 8.65709 108.019 7.47323 106.51 5.69743C106.248 6.14692 106.11 6.65723 106.107 7.17724C106.107 8.21309 106.661 9.15033 107.466 9.64362C106.969 9.64196 106.482 9.50559 106.057 9.24902C106.048 10.6868 107.102 11.9601 108.522 12.2087C108.072 12.297 107.568 12.3692 107.114 12.258C107.326 12.863 107.72 13.3873 108.243 13.7584C108.766 14.1296 109.391 14.3292 110.032 14.3298C108.797 15.2519 107.003 15.867 105.453 15.5629L111.828 21.9378C112.217 21.9792 112.609 21.9999 113 22C119.075 22 124 17.0751 124 11Z" fill="url(#paint3_linear_1_49)"/>
<path fill-rule="evenodd" clip-rule="evenodd" d="M118.182 6.0427C117.629 5.45077 116.824 5.1055 115.918 5.1055C113.921 5.1055 112.506 6.88015 112.899 8.80506C110.334 8.65709 108.019 7.47323 106.51 5.69743C106.248 6.14692 106.11 6.65723 106.107 7.17724C106.107 8.21309 106.661 9.15038 107.466 9.64362C106.969 9.64196 106.482 9.50559 106.057 9.24902C106.048 10.6868 107.102 11.9601 108.522 12.2087C108.072 12.297 107.568 12.3692 107.114 12.258C107.326 12.863 107.72 13.3873 108.243 13.7584C108.766 14.1296 109.391 14.3292 110.032 14.3298C108.797 15.2519 107.003 15.867 105.453 15.5629C108.474 17.428 112.603 17.3467 115.483 15.2381C117.806 13.538 118.987 10.8486 118.987 8.01579C119.578 7.58425 120.104 7.06916 120.547 6.48666C119.993 6.73332 119.39 6.88129 118.786 6.97994C119.39 6.58531 119.893 6.04274 120.144 5.3028C120.144 5.3028 118.886 5.89473 118.182 6.0427Z" fill="white"/>
</g>
<g clip-path="url(#clip3_1_49)">
<path d="M147 22C153.075 22 158 17.0752 158 11C158 4.92488 153.075 0 147 0C140.925 0 136 4.92488 136 11C136 17.0752 140.925 22 147 22Z" fill="#D42428"/>
<path d="M154.778 3.22063C159.074 7.51678 159.074 14.4819 154.778 18.778C150.482 23.0738 143.517 23.074 139.22 18.778L154.778 3.22063Z" fill="#CC202D"/>
<path d="M157.832 12.9032L150.429 5.5002L149.832 6.09735L149.235 5.5002L148.581 6.15468L149.02 6.59428L148.877 6.73776L147.737 5.59782L147.688 5.64679L146.152 4.11065L145.498 4.76513L145.677 4.94422L145.414 5.20719L144.306 4.09988L143.847 4.55893L144.927 7.15861L144.441 9.15454L145.77 10.484L142.408 10.7191L142.357 16.5526L147.767 21.9689C152.836 21.6089 156.974 17.8176 157.832 12.9032Z" fill="#BA202E"/>
<path d="M150.934 13.5505H150.225L150.228 13.1386C150.228 12.9553 150.378 12.8058 150.562 12.8058H150.608C150.792 12.8058 150.943 12.9553 150.943 13.1386L150.934 13.5505ZM148.274 12.6676C148.094 12.6676 147.947 12.7887 147.947 12.9367V14.9402C147.947 15.0882 148.094 15.2086 148.274 15.2086C148.454 15.2086 148.602 15.0882 148.602 14.9402V12.9365C148.602 12.7887 148.454 12.6676 148.274 12.6676ZM152.594 11.5471V15.3583C152.594 16.2727 151.801 17.0206 150.832 17.0206H143.587C142.617 17.0206 141.825 16.2725 141.825 15.3583V11.5471C141.825 10.6328 142.618 9.88455 143.587 9.88455H150.832C151.801 9.88455 152.594 10.633 152.594 11.5471ZM144.07 15.7723L144.07 11.7575L144.968 11.7578V11.1628L142.574 11.1591V11.7438L143.321 11.746V15.7721H144.07V15.7723ZM146.762 12.3557H146.014V14.4994C146.014 14.8096 146.032 14.9647 146.013 15.0193C145.951 15.1855 145.678 15.362 145.571 15.0373C145.553 14.9804 145.569 14.8088 145.569 14.514L145.565 12.3555H144.821L144.823 14.4799C144.824 14.8056 144.816 15.0484 144.826 15.1589C144.844 15.3538 144.837 15.5811 145.018 15.7106C145.355 15.9536 146.001 15.6745 146.162 15.3276L146.161 15.7701L146.762 15.771V12.3557H146.762ZM149.158 14.8105L149.156 13.0261C149.156 12.3459 148.647 11.9386 147.956 12.4889L147.959 11.1622L147.211 11.1634L147.207 15.7422L147.823 15.7331L147.878 15.4477C148.665 16.1697 149.159 15.6753 149.158 14.8105ZM151.502 14.5741L150.94 14.5771C150.94 14.5995 150.939 14.625 150.938 14.6532V14.9665C150.938 15.1341 150.8 15.2706 150.632 15.2706H150.522C150.353 15.2706 150.215 15.1341 150.215 14.9665V14.9318V14.5868V14.1422H151.5V13.6582C151.5 13.3048 151.491 12.9513 151.462 12.7491C151.37 12.1094 150.472 12.008 150.019 12.3354C149.876 12.4377 149.768 12.5746 149.704 12.7587C149.64 12.9427 149.609 13.1936 149.609 13.5129V14.5768C149.609 16.3453 151.757 16.0953 151.502 14.5741ZM148.621 8.79776C148.66 8.8919 148.72 8.96779 148.801 9.02545C148.882 9.08171 148.985 9.1104 149.108 9.1104C149.216 9.1104 149.311 9.0812 149.394 9.02094C149.478 8.96102 149.548 8.87175 149.605 8.75226L149.591 9.04615H150.425V5.49653H149.768V8.25914C149.768 8.40852 149.645 8.53098 149.494 8.53098C149.344 8.53098 149.221 8.40852 149.221 8.25914V5.49653H148.535V7.89056C148.535 8.19559 148.54 8.39896 148.55 8.50215C148.559 8.6046 148.583 8.70273 148.621 8.79776ZM146.092 6.793C146.092 6.45223 146.121 6.18629 146.177 5.99453C146.233 5.80328 146.336 5.64958 146.484 5.5339C146.631 5.41734 146.82 5.35917 147.05 5.35917C147.242 5.35917 147.408 5.39719 147.546 5.47137C147.685 5.54606 147.792 5.6428 147.866 5.76247C147.942 5.88252 147.994 6.00599 148.021 6.13226C148.049 6.2601 148.063 6.45344 148.063 6.71344V7.61125C148.063 7.94056 148.05 8.18269 148.024 8.33662C147.999 8.49087 147.944 8.6338 147.86 8.76772C147.777 8.90044 147.669 8.99959 147.538 9.06281C147.407 9.12692 147.256 9.15816 147.085 9.15816C146.895 9.15816 146.735 9.13193 146.603 9.07688C146.471 9.02234 146.368 8.93999 146.295 8.83076C146.221 8.72135 146.17 8.58812 146.139 8.43285C146.107 8.27738 146.092 8.04412 146.092 7.73287V6.793H146.092ZM146.745 8.2032C146.745 8.40397 146.895 8.56811 147.078 8.56811C147.26 8.56811 147.409 8.40416 147.409 8.2032V6.31344C147.409 6.11267 147.26 5.94853 147.078 5.94853C146.895 5.94853 146.745 6.11248 146.745 6.31344V8.2032ZM144.436 9.15728H145.223L145.224 6.43482L146.154 4.10262H145.293L144.798 5.83521L144.297 4.09812H143.444L144.434 6.4364L144.436 9.15728Z" fill="white"/>
</g>
<defs>
<linearGradient id="paint0_linear_1_49" x1="7.94275" y1="6.85303" x2="24.6568" y2="23.567" gradientUnits="userSpaceOnUse">
<stop stop-color="#1D1D1B"/>
<stop offset="0.369" stop-color="#1D1D1B" stop-opacity="0.856"/>
<stop offset="0.75" stop-color="#1D1D1B" stop-opacity="0.429"/>
<stop offset="1" stop-color="#1D1D1B" stop-opacity="0"/>
</linearGradient>
<linearGradient id="paint1_linear_1_49" x1="71.4041" y1="18.5959" x2="86.5959" y2="3.40411" gradientUnits="userSpaceOnUse">
<stop stop-color="#D6B43D"/>
<stop offset="0.051" stop-color="#DBA93F"/>
<stop offset="0.143" stop-color="#E88A45"/>
<stop offset="0.164" stop-color="#EB8246"/>
<stop offset="0.211" stop-color="#E7774D"/>
<stop offset="0.294" stop-color="#DD5860"/>
<stop offset="0.31" stop-color="#DB5164"/>
<stop offset="0.464" stop-color="#D2466C"/>
<stop offset="0.567" stop-color="#C93B73"/>
<stop offset="0.607" stop-color="#CB3179"/>
<stop offset="0.733" stop-color="#A23394"/>
<stop offset="0.856" stop-color="#7F35AB"/>
<stop offset="0.91" stop-color="#7D35AB"/>
<stop offset="0.94" stop-color="#7537AA"/>
<stop offset="0.964" stop-color="#673AA9"/>
<stop offset="0.985" stop-color="#533DA8"/>
<stop offset="1" stop-color="#4041A6"/>
</linearGradient>
<linearGradient id="paint2_linear_1_49" x1="73.4754" y1="5.47547" x2="86.5958" y2="18.5959" gradientUnits="userSpaceOnUse">
<stop stop-color="#1D1D1B"/>
<stop offset="0.369" stop-color="#1D1D1B" stop-opacity="0.856"/>
<stop offset="0.75" stop-color="#1D1D1B" stop-opacity="0.429"/>
<stop offset="1" stop-color="#1D1D1B" stop-opacity="0"/>
</linearGradient>
<linearGradient id="paint3_linear_1_49" x1="107.287" y1="4.9207" x2="120.961" y2="18.5952" gradientUnits="userSpaceOnUse">
<stop stop-color="#1D1D1B"/>
<stop offset="0.369" stop-color="#1D1D1B" stop-opacity="0.856"/>
<stop offset="0.75" stop-color="#1D1D1B" stop-opacity="0.429"/>
<stop offset="1" stop-color="#1D1D1B" stop-opacity="0"/>
</linearGradient>
<clipPath id="clip0_1_49">
<rect width="22" height="22" fill="white" transform="translate(34)"/>
</clipPath>
<clipPath id="clip1_1_49">
<rect width="22" height="22" fill="white" transform="translate(68)"/>
</clipPath>
<clipPath id="clip2_1_49">
<rect width="22" height="22" fill="white" transform="translate(102)"/>
</clipPath>
<clipPath id="clip3_1_49">
<rect width="22" height="22" fill="white" transform="translate(136)"/>
</clipPath>
</defs>
</svg>
