<svg width="24" height="24" viewBox="0 0 24 24" fill="none" xmlns="http://www.w3.org/2000/svg">
<rect width="24" height="24" rx="12" fill="white"/>
<g clip-path="url(#clip0_3_153)">
<path d="M20 12.025L17.9 10.3305L19.25 7.988L16.4 7.739L16.15 4.9975L13.75 6.144L12.1 4L10.55 6.193L8.05 4.897L7.9 7.7385L5.1 7.888L6.15 10.5795L4 11.8755L6.2 13.5205L5.1 15.863L7.85 16.162L8 18.9535L10.55 17.757L12.25 20L13.75 17.757L16.1 18.9035L16.3 16.112L19.05 16.062L18.05 13.769L20 12.025Z" fill="#FF0000"/>
<path d="M8.781 14.141L7.794 11.321L8.5385 11.0605L9.486 11.889C9.7575 12.1275 10.0475 12.4205 10.285 12.6945L10.2975 12.69C10.125 12.332 9.979 11.9555 9.8315 11.5335L9.543 10.709L10.1285 10.5045L11.1155 13.3245L10.446 13.559L9.463 12.682C9.19 12.4395 8.8785 12.1395 8.6245 11.858L8.614 11.8665C8.761 12.233 8.9085 12.6275 9.069 13.0875L9.3665 13.937L8.781 14.141Z" fill="white"/>
<path d="M11.838 12.151C11.9515 12.4075 12.254 12.442 12.552 12.338C12.7695 12.262 12.935 12.1705 13.087 12.0565L13.3215 12.458C13.142 12.615 12.901 12.7465 12.625 12.8435C11.9305 13.0865 11.3925 12.824 11.168 12.184C10.987 11.6655 11.1085 10.9795 11.8195 10.7305C12.4805 10.499 12.912 10.926 13.089 11.432C13.127 11.5405 13.1485 11.6415 13.1565 11.6905L11.838 12.151ZM12.4345 11.454C12.3805 11.299 12.2225 11.0635 11.9295 11.166C11.662 11.26 11.638 11.54 11.6815 11.718L12.4345 11.454Z" fill="white"/>
<path d="M13.543 10.1785L13.9985 10.958C14.115 11.1565 14.2365 11.368 14.3515 11.591L14.36 11.588C14.32 11.339 14.296 11.084 14.2765 10.866L14.1995 9.94901L14.702 9.77301L15.192 10.517C15.327 10.728 15.462 10.9395 15.586 11.1585L15.594 11.1555C15.542 10.9115 15.503 10.666 15.467 10.416L15.3585 9.54251L15.9825 9.32401L16.0705 11.5895L15.4725 11.799L15.028 11.1465C14.9075 10.9635 14.805 10.7925 14.676 10.556L14.667 10.559C14.719 10.827 14.7425 11.03 14.756 11.2415L14.8025 12.033L14.2045 12.2425L12.895 10.404L13.543 10.1785Z" fill="white"/>
</g>
<defs>
<clipPath id="clip0_3_153">
<rect width="16" height="16" fill="white" transform="translate(4 4)"/>
</clipPath>
</defs>
</svg>
