<svg width="28" height="22" viewBox="0 0 28 22" fill="none" xmlns="http://www.w3.org/2000/svg">
<path d="M20.9149 21.2769L19.2124 5.35379C19.1767 5.02045 18.8906 4.76734 18.5493 4.76734H15.3494V4.0508C15.3494 1.81727 13.4991 0 11.225 0C8.95065 0 7.10034 1.81727 7.10034 4.0508V4.76734H3.90044C3.55916 4.76734 3.27307 5.02045 3.23736 5.35379L1.53487 21.2769C1.51522 21.4613 1.57623 21.6455 1.70252 21.7834C1.82899 21.9212 2.00911 22 2.19795 22H20.2516C20.4406 22 20.6208 21.9212 20.7471 21.7834C20.8737 21.6455 20.9345 21.4613 20.9149 21.2769ZM8.43368 4.0508C8.43368 2.53935 9.68585 1.30954 11.225 1.30954C12.7639 1.30954 14.0161 2.53935 14.0161 4.0508V4.76734H8.43368V4.0508ZM2.93828 20.6904L4.50081 6.07688H7.10034V7.51985C7.10034 7.88139 7.39889 8.17462 7.76701 8.17462C8.13512 8.17462 8.43368 7.88139 8.43368 7.51985V6.07688H14.0161V7.51985C14.0161 7.88139 14.3146 8.17462 14.6827 8.17462C15.0509 8.17462 15.3494 7.88139 15.3494 7.51985V6.07688H17.9489L19.5115 20.6904H2.93828Z" fill="white"/>
<rect x="14.5601" width="13.44" height="13.2" rx="6.6" fill="#379237"/>
<path d="M23.78 5.96957V7.17609C23.78 7.82464 23.7221 8.37174 23.6061 8.81739C23.4902 9.26304 23.3235 9.62174 23.1061 9.89348C22.8887 10.1652 22.626 10.3627 22.3181 10.4859C22.0137 10.6054 21.6695 10.6652 21.2855 10.6652C20.9811 10.6652 20.7003 10.6272 20.4431 10.5511C20.1858 10.475 19.9539 10.3536 19.7474 10.187C19.5445 10.0167 19.3706 9.79565 19.2257 9.52391C19.0808 9.25217 18.9702 8.92246 18.8942 8.53478C18.8181 8.1471 18.78 7.6942 18.78 7.17609V5.96957C18.78 5.32101 18.838 4.77754 18.9539 4.33913C19.0735 3.90072 19.242 3.54928 19.4594 3.28478C19.6768 3.01667 19.9376 2.82464 20.242 2.7087C20.55 2.59275 20.8942 2.53478 21.2746 2.53478C21.5826 2.53478 21.8652 2.57283 22.1224 2.64891C22.3833 2.72138 22.6152 2.83913 22.8181 3.00217C23.021 3.16159 23.1931 3.37536 23.3344 3.64348C23.4793 3.90797 23.5898 4.23225 23.6659 4.6163C23.742 5.00036 23.78 5.45145 23.78 5.96957ZM22.7692 7.33913V5.80109C22.7692 5.44601 22.7474 5.13442 22.7039 4.8663C22.6641 4.59457 22.6043 4.36268 22.5246 4.17065C22.4449 3.97862 22.3434 3.82283 22.2202 3.70326C22.1007 3.5837 21.9612 3.49674 21.8018 3.44239C21.646 3.38442 21.4702 3.35543 21.2746 3.35543C21.0355 3.35543 20.8235 3.40072 20.6387 3.4913C20.4539 3.57826 20.2981 3.71775 20.1713 3.90978C20.0481 4.10181 19.9539 4.35362 19.8887 4.66522C19.8235 4.97681 19.7909 5.35543 19.7909 5.80109V7.33913C19.7909 7.6942 19.8108 8.00761 19.8507 8.27935C19.8942 8.55109 19.9576 8.78659 20.0409 8.98587C20.1242 9.18152 20.2257 9.34275 20.3452 9.46956C20.4648 9.59638 20.6025 9.69058 20.7583 9.75217C20.9177 9.81014 21.0934 9.83913 21.2855 9.83913C21.5318 9.83913 21.7474 9.79203 21.9322 9.69783C22.117 9.60362 22.271 9.45688 22.3942 9.25761C22.521 9.05471 22.6152 8.79565 22.6768 8.48043C22.7384 8.16159 22.7692 7.78116 22.7692 7.33913Z" fill="white"/>
</svg>
